<?xml version="1.0" encoding="UTF-8" standalone="no"?>
<!DOCTYPE svg PUBLIC "-//W3C//DTD SVG 1.1//EN"
 "http://www.w3.org/Graphics/SVG/1.1/DTD/svg11.dtd">
<!-- Generated by graphviz version 2.47.3 (20210619.1520)
 -->
<!-- Title: dependencies Pages: 1 -->
<svg width="1332pt" height="247pt"
 viewBox="0.00 0.00 1332.00 246.80" xmlns="http://www.w3.org/2000/svg" xmlns:xlink="http://www.w3.org/1999/xlink">
<g id="graph0" class="graph" transform="scale(1 1) rotate(0) translate(4 242.8)">
<title>dependencies</title>
<polygon fill="white" stroke="transparent" points="-4,4 -4,-242.8 1328,-242.8 1328,4 -4,4"/>
<text text-anchor="middle" x="662" y="-8.2" font-family="sans-serif" font-size="14.00">dependencies</text>
<g id="clust1" class="cluster">
<title>cluster_CoreModule</title>
<polygon fill="none" stroke="black" stroke-dasharray="1,5" points="8,-32.8 8,-230.8 1316,-230.8 1316,-32.8 8,-32.8"/>
</g>
<g id="clust2" class="cluster">
<title>cluster_CoreModule_declarations</title>
<polygon fill="none" stroke="black" points="225,-40.8 225,-92.8 1039,-92.8 1039,-40.8 225,-40.8"/>
</g>
<g id="clust10" class="cluster">
<title>cluster_CoreModule_exports</title>
<polygon fill="none" stroke="black" points="16,-170.8 16,-222.8 1308,-222.8 1308,-170.8 16,-170.8"/>
</g>
<!-- Footer2Component -->
<g id="node1" class="node">
<title>Footer2Component</title>
<polygon fill="#ffffb3" stroke="black" points="1031.38,-84.8 906.62,-84.8 906.62,-48.8 1031.38,-48.8 1031.38,-84.8"/>
<text text-anchor="middle" x="969" y="-62.6" font-family="Times,serif" font-size="14.00">Footer2Component</text>
</g>
<!-- CoreModule -->
<g id="node7" class="node">
<title>CoreModule</title>
<polygon fill="#8dd3c7" stroke="black" points="660.26,-149.8 657.26,-153.8 636.26,-153.8 633.26,-149.8 573.74,-149.8 573.74,-113.8 660.26,-113.8 660.26,-149.8"/>
<text text-anchor="middle" x="617" y="-127.6" font-family="Times,serif" font-size="14.00">CoreModule</text>
</g>
<!-- Footer2Component&#45;&gt;CoreModule -->
<g id="edge1" class="edge">
<title>Footer2Component&#45;&gt;CoreModule</title>
<path fill="none" stroke="black" d="M960.34,-84.83C960.34,-101.86 960.34,-124.8 960.34,-124.8 960.34,-124.8 670.48,-124.8 670.48,-124.8"/>
<polygon fill="black" stroke="black" points="670.48,-121.3 660.48,-124.8 670.48,-128.3 670.48,-121.3"/>
</g>
<!-- FooterComponent -->
<g id="node2" class="node">
<title>FooterComponent</title>
<polygon fill="#ffffb3" stroke="black" points="888.88,-84.8 771.12,-84.8 771.12,-48.8 888.88,-48.8 888.88,-84.8"/>
<text text-anchor="middle" x="830" y="-62.6" font-family="Times,serif" font-size="14.00">FooterComponent</text>
</g>
<!-- FooterComponent&#45;&gt;CoreModule -->
<g id="edge2" class="edge">
<title>FooterComponent&#45;&gt;CoreModule</title>
<path fill="none" stroke="black" d="M817.34,-85.04C817.34,-100.37 817.34,-119.8 817.34,-119.8 817.34,-119.8 670.47,-119.8 670.47,-119.8"/>
<polygon fill="black" stroke="black" points="670.47,-116.3 660.47,-119.8 670.47,-123.3 670.47,-116.3"/>
</g>
<!-- Header2Component -->
<g id="node3" class="node">
<title>Header2Component</title>
<polygon fill="#ffffb3" stroke="black" points="753.24,-84.8 624.76,-84.8 624.76,-48.8 753.24,-48.8 753.24,-84.8"/>
<text text-anchor="middle" x="689" y="-62.6" font-family="Times,serif" font-size="14.00">Header2Component</text>
</g>
<!-- Header2Component&#45;&gt;CoreModule -->
<g id="edge3" class="edge">
<title>Header2Component&#45;&gt;CoreModule</title>
<path fill="none" stroke="black" d="M642.5,-84.91C642.5,-84.91 642.5,-103.79 642.5,-103.79"/>
<polygon fill="black" stroke="black" points="639,-103.79 642.5,-113.79 646,-103.79 639,-103.79"/>
</g>
<!-- HeaderComponent -->
<g id="node4" class="node">
<title>HeaderComponent</title>
<polygon fill="#ffffb3" stroke="black" points="606.74,-84.8 485.26,-84.8 485.26,-48.8 606.74,-48.8 606.74,-84.8"/>
<text text-anchor="middle" x="546" y="-62.6" font-family="Times,serif" font-size="14.00">HeaderComponent</text>
</g>
<!-- HeaderComponent&#45;&gt;CoreModule -->
<g id="edge4" class="edge">
<title>HeaderComponent&#45;&gt;CoreModule</title>
<path fill="none" stroke="black" d="M590.25,-84.91C590.25,-84.91 590.25,-103.79 590.25,-103.79"/>
<polygon fill="black" stroke="black" points="586.75,-103.79 590.25,-113.79 593.75,-103.79 586.75,-103.79"/>
</g>
<!-- Nav2Component -->
<g id="node5" class="node">
<title>Nav2Component</title>
<polygon fill="#ffffb3" stroke="black" points="466.65,-84.8 355.35,-84.8 355.35,-48.8 466.65,-48.8 466.65,-84.8"/>
<text text-anchor="middle" x="411" y="-62.6" font-family="Times,serif" font-size="14.00">Nav2Component</text>
</g>
<!-- Nav2Component&#45;&gt;CoreModule -->
<g id="edge5" class="edge">
<title>Nav2Component&#45;&gt;CoreModule</title>
<path fill="none" stroke="black" d="M423.12,-85.04C423.12,-100.37 423.12,-119.8 423.12,-119.8 423.12,-119.8 563.49,-119.8 563.49,-119.8"/>
<polygon fill="black" stroke="black" points="563.49,-123.3 573.49,-119.8 563.49,-116.3 563.49,-123.3"/>
</g>
<!-- NavComponent -->
<g id="node6" class="node">
<title>NavComponent</title>
<polygon fill="#ffffb3" stroke="black" points="337.15,-84.8 232.85,-84.8 232.85,-48.8 337.15,-48.8 337.15,-84.8"/>
<text text-anchor="middle" x="285" y="-62.6" font-family="Times,serif" font-size="14.00">NavComponent</text>
</g>
<!-- NavComponent&#45;&gt;CoreModule -->
<g id="edge6" class="edge">
<title>NavComponent&#45;&gt;CoreModule</title>
<path fill="none" stroke="black" d="M295.12,-84.83C295.12,-101.86 295.12,-124.8 295.12,-124.8 295.12,-124.8 563.59,-124.8 563.59,-124.8"/>
<polygon fill="black" stroke="black" points="563.59,-128.3 573.59,-124.8 563.59,-121.3 563.59,-128.3"/>
</g>
<!-- Footer2Component  -->
<g id="node8" class="node">
<title>Footer2Component </title>
<polygon fill="#fb8072" stroke="black" points="1300.38,-214.8 1171.62,-214.8 1171.62,-178.8 1300.38,-178.8 1300.38,-214.8"/>
<text text-anchor="middle" x="1236" y="-192.6" font-family="Times,serif" font-size="14.00">Footer2Component </text>
</g>
<!-- CoreModule&#45;&gt;Footer2Component  -->
<g id="edge7" class="edge">
<title>CoreModule&#45;&gt;Footer2Component </title>
<path fill="none" stroke="black" stroke-dasharray="5,2" d="M660.53,-129.8C801.42,-129.8 1236,-129.8 1236,-129.8 1236,-129.8 1236,-168.49 1236,-168.49"/>
<polygon fill="black" stroke="black" points="1232.5,-168.49 1236,-178.49 1239.5,-168.49 1232.5,-168.49"/>
</g>
<!-- FooterComponent  -->
<g id="node9" class="node">
<title>FooterComponent </title>
<polygon fill="#fb8072" stroke="black" points="1153.88,-214.8 1032.12,-214.8 1032.12,-178.8 1153.88,-178.8 1153.88,-214.8"/>
<text text-anchor="middle" x="1093" y="-192.6" font-family="Times,serif" font-size="14.00">FooterComponent </text>
</g>
<!-- CoreModule&#45;&gt;FooterComponent  -->
<g id="edge8" class="edge">
<title>CoreModule&#45;&gt;FooterComponent </title>
<path fill="none" stroke="black" stroke-dasharray="5,2" d="M660.5,-134.8C778.01,-134.8 1093,-134.8 1093,-134.8 1093,-134.8 1093,-168.53 1093,-168.53"/>
<polygon fill="black" stroke="black" points="1089.5,-168.53 1093,-178.53 1096.5,-168.53 1089.5,-168.53"/>
</g>
<!-- Header2Component  -->
<g id="node10" class="node">
<title>Header2Component </title>
<polygon fill="#fb8072" stroke="black" points="1014.24,-214.8 881.76,-214.8 881.76,-178.8 1014.24,-178.8 1014.24,-214.8"/>
<text text-anchor="middle" x="948" y="-192.6" font-family="Times,serif" font-size="14.00">Header2Component </text>
</g>
<!-- CoreModule&#45;&gt;Header2Component  -->
<g id="edge9" class="edge">
<title>CoreModule&#45;&gt;Header2Component </title>
<path fill="none" stroke="black" stroke-dasharray="5,2" d="M660.42,-139.8C736.39,-139.8 885.41,-139.8 885.41,-139.8 885.41,-139.8 885.41,-168.76 885.41,-168.76"/>
<polygon fill="black" stroke="black" points="881.91,-168.76 885.41,-178.76 888.91,-168.76 881.91,-168.76"/>
</g>
<!-- HeaderComponent  -->
<g id="node11" class="node">
<title>HeaderComponent </title>
<polygon fill="#fb8072" stroke="black" points="863.74,-214.8 738.26,-214.8 738.26,-178.8 863.74,-178.8 863.74,-214.8"/>
<text text-anchor="middle" x="801" y="-192.6" font-family="Times,serif" font-size="14.00">HeaderComponent </text>
</g>
<!-- CoreModule&#45;&gt;HeaderComponent  -->
<g id="edge10" class="edge">
<title>CoreModule&#45;&gt;HeaderComponent </title>
<path fill="none" stroke="black" stroke-dasharray="5,2" d="M660.27,-144.8C697.71,-144.8 745.88,-144.8 745.88,-144.8 745.88,-144.8 745.88,-168.61 745.88,-168.61"/>
<polygon fill="black" stroke="black" points="742.38,-168.61 745.88,-178.61 749.38,-168.61 742.38,-168.61"/>
</g>
<!-- IconsModule  -->
<g id="node12" class="node">
<title>IconsModule </title>
<polygon fill="#fb8072" stroke="black" points="720.87,-214.8 627.13,-214.8 627.13,-178.8 720.87,-178.8 720.87,-214.8"/>
<text text-anchor="middle" x="674" y="-192.6" font-family="Times,serif" font-size="14.00">IconsModule </text>
</g>
<!-- CoreModule&#45;&gt;IconsModule  -->
<g id="edge11" class="edge">
<title>CoreModule&#45;&gt;IconsModule </title>
<path fill="none" stroke="black" stroke-dasharray="5,2" d="M643.85,-149.91C643.85,-149.91 643.85,-168.79 643.85,-168.79"/>
<polygon fill="black" stroke="black" points="640.35,-168.79 643.85,-178.79 647.35,-168.79 640.35,-168.79"/>
</g>
<!-- LoginModule  -->
<g id="node13" class="node">
<title>LoginModule </title>
<polygon fill="#fb8072" stroke="black" points="609.49,-214.8 512.51,-214.8 512.51,-178.8 609.49,-178.8 609.49,-214.8"/>
<text text-anchor="middle" x="561" y="-192.6" font-family="Times,serif" font-size="14.00">LoginModule </text>
</g>
<!-- CoreModule&#45;&gt;LoginModule  -->
<g id="edge12" class="edge">
<title>CoreModule&#45;&gt;LoginModule </title>
<path fill="none" stroke="black" stroke-dasharray="5,2" d="M591.43,-149.91C591.43,-149.91 591.43,-168.79 591.43,-168.79"/>
<polygon fill="black" stroke="black" points="587.93,-168.79 591.43,-178.79 594.93,-168.79 587.93,-168.79"/>
</g>
<!-- Nav2Component  -->
<g id="node14" class="node">
<title>Nav2Component </title>
<polygon fill="#fb8072" stroke="black" points="494.65,-214.8 379.35,-214.8 379.35,-178.8 494.65,-178.8 494.65,-214.8"/>
<text text-anchor="middle" x="437" y="-192.6" font-family="Times,serif" font-size="14.00">Nav2Component </text>
</g>
<!-- CoreModule&#45;&gt;Nav2Component  -->
<g id="edge13" class="edge">
<title>CoreModule&#45;&gt;Nav2Component </title>
<path fill="none" stroke="black" stroke-dasharray="5,2" d="M573.6,-144.8C536.77,-144.8 489.85,-144.8 489.85,-144.8 489.85,-144.8 489.85,-168.61 489.85,-168.61"/>
<polygon fill="black" stroke="black" points="486.35,-168.61 489.85,-178.61 493.35,-168.61 486.35,-168.61"/>
</g>
<!-- NavComponent  -->
<g id="node15" class="node">
<title>NavComponent </title>
<polygon fill="#fb8072" stroke="black" points="361.15,-214.8 252.85,-214.8 252.85,-178.8 361.15,-178.8 361.15,-214.8"/>
<text text-anchor="middle" x="307" y="-192.6" font-family="Times,serif" font-size="14.00">NavComponent </text>
</g>
<!-- CoreModule&#45;&gt;NavComponent  -->
<g id="edge14" class="edge">
<title>CoreModule&#45;&gt;NavComponent </title>
<path fill="none" stroke="black" stroke-dasharray="5,2" d="M573.5,-139.8C496.96,-139.8 346.25,-139.8 346.25,-139.8 346.25,-139.8 346.25,-168.76 346.25,-168.76"/>
<polygon fill="black" stroke="black" points="342.75,-168.76 346.25,-178.76 349.75,-168.76 342.75,-168.76"/>
</g>
<!-- TemplateModule  -->
<g id="node16" class="node">
<title>TemplateModule </title>
<polygon fill="#fb8072" stroke="black" points="234.92,-214.8 119.08,-214.8 119.08,-178.8 234.92,-178.8 234.92,-214.8"/>
<text text-anchor="middle" x="177" y="-192.6" font-family="Times,serif" font-size="14.00">TemplateModule </text>
</g>
<!-- CoreModule&#45;&gt;TemplateModule  -->
<g id="edge15" class="edge">
<title>CoreModule&#45;&gt;TemplateModule </title>
<path fill="none" stroke="black" stroke-dasharray="5,2" d="M573.49,-134.8C462.2,-134.8 175.86,-134.8 175.86,-134.8 175.86,-134.8 175.86,-168.53 175.86,-168.53"/>
<polygon fill="black" stroke="black" points="172.36,-168.53 175.86,-178.53 179.36,-168.53 172.36,-168.53"/>
</g>
<!-- UiModule  -->
<g id="node17" class="node">
<title>UiModule </title>
<polygon fill="#fb8072" stroke="black" points="101.55,-214.8 24.45,-214.8 24.45,-178.8 101.55,-178.8 101.55,-214.8"/>
<text text-anchor="middle" x="63" y="-192.6" font-family="Times,serif" font-size="14.00">UiModule </text>
</g>
<!-- CoreModule&#45;&gt;UiModule  -->
<g id="edge16" class="edge">
<title>CoreModule&#45;&gt;UiModule </title>
<path fill="none" stroke="black" stroke-dasharray="5,2" d="M573.53,-129.8C442.93,-129.8 63,-129.8 63,-129.8 63,-129.8 63,-168.49 63,-168.49"/>
<polygon fill="black" stroke="black" points="59.5,-168.49 63,-178.49 66.5,-168.49 59.5,-168.49"/>
</g>
</g>
</svg>
