<?xml version="1.0" encoding="UTF-8" standalone="no"?>
<!DOCTYPE svg PUBLIC "-//W3C//DTD SVG 1.1//EN"
 "http://www.w3.org/Graphics/SVG/1.1/DTD/svg11.dtd">
<!-- Generated by graphviz version 2.47.3 (20210619.1520)
 -->
<!-- Title: dependencies Pages: 1 -->
<svg width="907pt" height="247pt"
 viewBox="0.00 0.00 907.00 246.80" xmlns="http://www.w3.org/2000/svg" xmlns:xlink="http://www.w3.org/1999/xlink">
<g id="graph0" class="graph" transform="scale(1 1) rotate(0) translate(4 242.8)">
<title>dependencies</title>
<polygon fill="white" stroke="transparent" points="-4,4 -4,-242.8 903,-242.8 903,4 -4,4"/>
<text text-anchor="middle" x="449.5" y="-8.2" font-family="sans-serif" font-size="14.00">dependencies</text>
<g id="clust1" class="cluster">
<title>cluster_SharedModule</title>
<polygon fill="none" stroke="black" stroke-dasharray="1,5" points="8,-32.8 8,-230.8 891,-230.8 891,-32.8 8,-32.8"/>
</g>
<g id="clust9" class="cluster">
<title>cluster_SharedModule_exports</title>
<polygon fill="none" stroke="black" points="16,-170.8 16,-222.8 883,-222.8 883,-170.8 16,-170.8"/>
</g>
<g id="clust2" class="cluster">
<title>cluster_SharedModule_declarations</title>
<polygon fill="none" stroke="black" points="158,-40.8 158,-92.8 763,-92.8 763,-40.8 158,-40.8"/>
</g>
<!-- BtnRedirectComponent -->
<g id="node1" class="node">
<title>BtnRedirectComponent</title>
<polygon fill="#ffffb3" stroke="black" points="755.48,-84.8 606.52,-84.8 606.52,-48.8 755.48,-48.8 755.48,-84.8"/>
<text text-anchor="middle" x="681" y="-62.6" font-family="Times,serif" font-size="14.00">BtnRedirectComponent</text>
</g>
<!-- SharedModule -->
<g id="node6" class="node">
<title>SharedModule</title>
<polygon fill="#8dd3c7" stroke="black" points="461.42,-149.8 458.42,-153.8 437.42,-153.8 434.42,-149.8 362.58,-149.8 362.58,-113.8 461.42,-113.8 461.42,-149.8"/>
<text text-anchor="middle" x="412" y="-127.6" font-family="Times,serif" font-size="14.00">SharedModule</text>
</g>
<!-- BtnRedirectComponent&#45;&gt;SharedModule -->
<g id="edge1" class="edge">
<title>BtnRedirectComponent&#45;&gt;SharedModule</title>
<path fill="none" stroke="black" d="M642.44,-84.82C642.44,-102.17 642.44,-125.8 642.44,-125.8 642.44,-125.8 471.43,-125.8 471.43,-125.8"/>
<polygon fill="black" stroke="black" points="471.43,-122.3 461.43,-125.8 471.43,-129.3 471.43,-122.3"/>
</g>
<!-- StateDirective -->
<g id="node2" class="node">
<title>StateDirective</title>
<polygon fill="#ffffb3" stroke="black" points="588.08,-84.8 491.92,-84.8 491.92,-48.8 588.08,-48.8 588.08,-84.8"/>
<text text-anchor="middle" x="540" y="-62.6" font-family="Times,serif" font-size="14.00">StateDirective</text>
</g>
<!-- StateDirective&#45;&gt;SharedModule -->
<g id="edge2" class="edge">
<title>StateDirective&#45;&gt;SharedModule</title>
<path fill="none" stroke="black" d="M556.76,-85.04C556.76,-100.37 556.76,-119.8 556.76,-119.8 556.76,-119.8 471.41,-119.8 471.41,-119.8"/>
<polygon fill="black" stroke="black" points="471.41,-116.3 461.41,-119.8 471.41,-123.3 471.41,-116.3"/>
</g>
<!-- TabListComponent -->
<g id="node3" class="node">
<title>TabListComponent</title>
<polygon fill="#ffffb3" stroke="black" points="474.38,-84.8 349.62,-84.8 349.62,-48.8 474.38,-48.8 474.38,-84.8"/>
<text text-anchor="middle" x="412" y="-62.6" font-family="Times,serif" font-size="14.00">TabListComponent</text>
</g>
<!-- TabListComponent&#45;&gt;SharedModule -->
<g id="edge3" class="edge">
<title>TabListComponent&#45;&gt;SharedModule</title>
<path fill="none" stroke="black" d="M412,-84.91C412,-84.91 412,-103.79 412,-103.79"/>
<polygon fill="black" stroke="black" points="408.5,-103.79 412,-113.79 415.5,-103.79 408.5,-103.79"/>
</g>
<!-- Total2Pipe -->
<g id="node4" class="node">
<title>Total2Pipe</title>
<polygon fill="#ffffb3" stroke="black" points="331.94,-84.8 254.06,-84.8 254.06,-48.8 331.94,-48.8 331.94,-84.8"/>
<text text-anchor="middle" x="293" y="-62.6" font-family="Times,serif" font-size="14.00">Total2Pipe</text>
</g>
<!-- Total2Pipe&#45;&gt;SharedModule -->
<g id="edge4" class="edge">
<title>Total2Pipe&#45;&gt;SharedModule</title>
<path fill="none" stroke="black" d="M304.73,-85.04C304.73,-100.37 304.73,-119.8 304.73,-119.8 304.73,-119.8 352.76,-119.8 352.76,-119.8"/>
<polygon fill="black" stroke="black" points="352.76,-123.3 362.76,-119.8 352.76,-116.3 352.76,-123.3"/>
</g>
<!-- TotalPipe -->
<g id="node5" class="node">
<title>TotalPipe</title>
<polygon fill="#ffffb3" stroke="black" points="236.44,-84.8 165.56,-84.8 165.56,-48.8 236.44,-48.8 236.44,-84.8"/>
<text text-anchor="middle" x="201" y="-62.6" font-family="Times,serif" font-size="14.00">TotalPipe</text>
</g>
<!-- TotalPipe&#45;&gt;SharedModule -->
<g id="edge5" class="edge">
<title>TotalPipe&#45;&gt;SharedModule</title>
<path fill="none" stroke="black" d="M225.13,-84.82C225.13,-102.17 225.13,-125.8 225.13,-125.8 225.13,-125.8 352.41,-125.8 352.41,-125.8"/>
<polygon fill="black" stroke="black" points="352.41,-129.3 362.41,-125.8 352.41,-122.3 352.41,-129.3"/>
</g>
<!-- BtnRedirectComponent  -->
<g id="node7" class="node">
<title>BtnRedirectComponent </title>
<polygon fill="#fb8072" stroke="black" points="875.48,-214.8 722.52,-214.8 722.52,-178.8 875.48,-178.8 875.48,-214.8"/>
<text text-anchor="middle" x="799" y="-192.6" font-family="Times,serif" font-size="14.00">BtnRedirectComponent </text>
</g>
<!-- SharedModule&#45;&gt;BtnRedirectComponent  -->
<g id="edge6" class="edge">
<title>SharedModule&#45;&gt;BtnRedirectComponent </title>
<path fill="none" stroke="black" stroke-dasharray="5,2" d="M461.33,-131.8C552.71,-131.8 739.12,-131.8 739.12,-131.8 739.12,-131.8 739.12,-168.69 739.12,-168.69"/>
<polygon fill="black" stroke="black" points="735.63,-168.69 739.12,-178.69 742.63,-168.69 735.63,-168.69"/>
</g>
<!-- IconsModule  -->
<g id="node8" class="node">
<title>IconsModule </title>
<polygon fill="#fb8072" stroke="black" points="704.87,-214.8 611.13,-214.8 611.13,-178.8 704.87,-178.8 704.87,-214.8"/>
<text text-anchor="middle" x="658" y="-192.6" font-family="Times,serif" font-size="14.00">IconsModule </text>
</g>
<!-- SharedModule&#45;&gt;IconsModule  -->
<g id="edge7" class="edge">
<title>SharedModule&#45;&gt;IconsModule </title>
<path fill="none" stroke="black" stroke-dasharray="5,2" d="M461.51,-137.8C537.33,-137.8 673.56,-137.8 673.56,-137.8 673.56,-137.8 673.56,-168.78 673.56,-168.78"/>
<polygon fill="black" stroke="black" points="670.06,-168.78 673.56,-178.78 677.06,-168.78 670.06,-168.78"/>
</g>
<!-- StateDirective  -->
<g id="node9" class="node">
<title>StateDirective </title>
<polygon fill="#fb8072" stroke="black" points="593.58,-214.8 494.42,-214.8 494.42,-178.8 593.58,-178.8 593.58,-214.8"/>
<text text-anchor="middle" x="544" y="-192.6" font-family="Times,serif" font-size="14.00">StateDirective </text>
</g>
<!-- SharedModule&#45;&gt;StateDirective  -->
<g id="edge8" class="edge">
<title>SharedModule&#45;&gt;StateDirective </title>
<path fill="none" stroke="black" stroke-dasharray="5,2" d="M461.45,-143.8C492.03,-143.8 525.49,-143.8 525.49,-143.8 525.49,-143.8 525.49,-168.56 525.49,-168.56"/>
<polygon fill="black" stroke="black" points="521.99,-168.56 525.49,-178.56 528.99,-168.56 521.99,-168.56"/>
</g>
<!-- TabListComponent  -->
<g id="node10" class="node">
<title>TabListComponent </title>
<polygon fill="#fb8072" stroke="black" points="476.38,-214.8 347.62,-214.8 347.62,-178.8 476.38,-178.8 476.38,-214.8"/>
<text text-anchor="middle" x="412" y="-192.6" font-family="Times,serif" font-size="14.00">TabListComponent </text>
</g>
<!-- SharedModule&#45;&gt;TabListComponent  -->
<g id="edge9" class="edge">
<title>SharedModule&#45;&gt;TabListComponent </title>
<path fill="none" stroke="black" stroke-dasharray="5,2" d="M412,-149.91C412,-149.91 412,-168.79 412,-168.79"/>
<polygon fill="black" stroke="black" points="408.5,-168.79 412,-178.79 415.5,-168.79 408.5,-168.79"/>
</g>
<!-- TemplateModule  -->
<g id="node11" class="node">
<title>TemplateModule </title>
<polygon fill="#fb8072" stroke="black" points="329.92,-214.8 214.08,-214.8 214.08,-178.8 329.92,-178.8 329.92,-214.8"/>
<text text-anchor="middle" x="272" y="-192.6" font-family="Times,serif" font-size="14.00">TemplateModule </text>
</g>
<!-- SharedModule&#45;&gt;TemplateModule  -->
<g id="edge10" class="edge">
<title>SharedModule&#45;&gt;TemplateModule </title>
<path fill="none" stroke="black" stroke-dasharray="5,2" d="M362.66,-143.8C325,-143.8 279.51,-143.8 279.51,-143.8 279.51,-143.8 279.51,-168.56 279.51,-168.56"/>
<polygon fill="black" stroke="black" points="276.01,-168.56 279.51,-178.56 283.01,-168.56 276.01,-168.56"/>
</g>
<!-- Total2Pipe  -->
<g id="node12" class="node">
<title>Total2Pipe </title>
<polygon fill="#fb8072" stroke="black" points="196.44,-214.8 115.56,-214.8 115.56,-178.8 196.44,-178.8 196.44,-214.8"/>
<text text-anchor="middle" x="156" y="-192.6" font-family="Times,serif" font-size="14.00">Total2Pipe </text>
</g>
<!-- SharedModule&#45;&gt;Total2Pipe  -->
<g id="edge11" class="edge">
<title>SharedModule&#45;&gt;Total2Pipe </title>
<path fill="none" stroke="black" stroke-dasharray="5,2" d="M362.75,-137.8C294.95,-137.8 181.12,-137.8 181.12,-137.8 181.12,-137.8 181.12,-168.78 181.12,-168.78"/>
<polygon fill="black" stroke="black" points="177.63,-168.78 181.12,-178.78 184.63,-168.78 177.63,-168.78"/>
</g>
<!-- TotalPipe  -->
<g id="node13" class="node">
<title>TotalPipe </title>
<polygon fill="#fb8072" stroke="black" points="97.94,-214.8 24.06,-214.8 24.06,-178.8 97.94,-178.8 97.94,-214.8"/>
<text text-anchor="middle" x="61" y="-192.6" font-family="Times,serif" font-size="14.00">TotalPipe </text>
</g>
<!-- SharedModule&#45;&gt;TotalPipe  -->
<g id="edge12" class="edge">
<title>SharedModule&#45;&gt;TotalPipe </title>
<path fill="none" stroke="black" stroke-dasharray="5,2" d="M362.45,-131.8C265.7,-131.8 61,-131.8 61,-131.8 61,-131.8 61,-168.69 61,-168.69"/>
<polygon fill="black" stroke="black" points="57.5,-168.69 61,-178.69 64.5,-168.69 57.5,-168.69"/>
</g>
</g>
</svg>
