<?xml version="1.0" encoding="UTF-8" standalone="no"?>
<!DOCTYPE svg PUBLIC "-//W3C//DTD SVG 1.1//EN"
 "http://www.w3.org/Graphics/SVG/1.1/DTD/svg11.dtd">
<!-- Generated by graphviz version 2.47.3 (20210619.1520)
 -->
<!-- Title: dependencies Pages: 1 -->
<svg width="790pt" height="247pt"
 viewBox="0.00 0.00 790.00 246.80" xmlns="http://www.w3.org/2000/svg" xmlns:xlink="http://www.w3.org/1999/xlink">
<g id="graph0" class="graph" transform="scale(1 1) rotate(0) translate(4 242.8)">
<title>dependencies</title>
<polygon fill="white" stroke="transparent" points="-4,4 -4,-242.8 786,-242.8 786,4 -4,4"/>
<text text-anchor="middle" x="391" y="-8.2" font-family="sans-serif" font-size="14.00">dependencies</text>
<g id="clust1" class="cluster">
<title>cluster_SharedModule</title>
<polygon fill="none" stroke="black" stroke-dasharray="1,5" points="8,-32.8 8,-230.8 774,-230.8 774,-32.8 8,-32.8"/>
</g>
<g id="clust2" class="cluster">
<title>cluster_SharedModule_declarations</title>
<polygon fill="none" stroke="black" points="148,-40.8 148,-92.8 639,-92.8 639,-40.8 148,-40.8"/>
</g>
<g id="clust8" class="cluster">
<title>cluster_SharedModule_exports</title>
<polygon fill="none" stroke="black" points="16,-170.8 16,-222.8 766,-222.8 766,-170.8 16,-170.8"/>
</g>
<!-- BtnRedirectComponent -->
<g id="node1" class="node">
<title>BtnRedirectComponent</title>
<polygon fill="#ffffb3" stroke="black" points="631.48,-84.8 482.52,-84.8 482.52,-48.8 631.48,-48.8 631.48,-84.8"/>
<text text-anchor="middle" x="557" y="-62.6" font-family="Times,serif" font-size="14.00">BtnRedirectComponent</text>
</g>
<!-- SharedModule -->
<g id="node5" class="node">
<title>SharedModule</title>
<polygon fill="#8dd3c7" stroke="black" points="391.42,-149.8 388.42,-153.8 367.42,-153.8 364.42,-149.8 292.58,-149.8 292.58,-113.8 391.42,-113.8 391.42,-149.8"/>
<text text-anchor="middle" x="342" y="-127.6" font-family="Times,serif" font-size="14.00">SharedModule</text>
</g>
<!-- BtnRedirectComponent&#45;&gt;SharedModule -->
<g id="edge1" class="edge">
<title>BtnRedirectComponent&#45;&gt;SharedModule</title>
<path fill="none" stroke="black" d="M488.41,-84.83C488.41,-101.2 488.41,-122.8 488.41,-122.8 488.41,-122.8 401.57,-122.8 401.57,-122.8"/>
<polygon fill="black" stroke="black" points="401.57,-119.3 391.57,-122.8 401.57,-126.3 401.57,-119.3"/>
</g>
<!-- TabListComponent -->
<g id="node2" class="node">
<title>TabListComponent</title>
<polygon fill="#ffffb3" stroke="black" points="464.38,-84.8 339.62,-84.8 339.62,-48.8 464.38,-48.8 464.38,-84.8"/>
<text text-anchor="middle" x="402" y="-62.6" font-family="Times,serif" font-size="14.00">TabListComponent</text>
</g>
<!-- TabListComponent&#45;&gt;SharedModule -->
<g id="edge2" class="edge">
<title>TabListComponent&#45;&gt;SharedModule</title>
<path fill="none" stroke="black" d="M365.39,-84.91C365.39,-84.91 365.39,-103.79 365.39,-103.79"/>
<polygon fill="black" stroke="black" points="361.89,-103.79 365.39,-113.79 368.89,-103.79 361.89,-103.79"/>
</g>
<!-- Total2Pipe -->
<g id="node3" class="node">
<title>Total2Pipe</title>
<polygon fill="#ffffb3" stroke="black" points="321.94,-84.8 244.06,-84.8 244.06,-48.8 321.94,-48.8 321.94,-84.8"/>
<text text-anchor="middle" x="283" y="-62.6" font-family="Times,serif" font-size="14.00">Total2Pipe</text>
</g>
<!-- Total2Pipe&#45;&gt;SharedModule -->
<g id="edge3" class="edge">
<title>Total2Pipe&#45;&gt;SharedModule</title>
<path fill="none" stroke="black" d="M307.25,-84.91C307.25,-84.91 307.25,-103.79 307.25,-103.79"/>
<polygon fill="black" stroke="black" points="303.75,-103.79 307.25,-113.79 310.75,-103.79 303.75,-103.79"/>
</g>
<!-- TotalPipe -->
<g id="node4" class="node">
<title>TotalPipe</title>
<polygon fill="#ffffb3" stroke="black" points="226.44,-84.8 155.56,-84.8 155.56,-48.8 226.44,-48.8 226.44,-84.8"/>
<text text-anchor="middle" x="191" y="-62.6" font-family="Times,serif" font-size="14.00">TotalPipe</text>
</g>
<!-- TotalPipe&#45;&gt;SharedModule -->
<g id="edge4" class="edge">
<title>TotalPipe&#45;&gt;SharedModule</title>
<path fill="none" stroke="black" d="M220.13,-84.83C220.13,-101.2 220.13,-122.8 220.13,-122.8 220.13,-122.8 282.78,-122.8 282.78,-122.8"/>
<polygon fill="black" stroke="black" points="282.78,-126.3 292.78,-122.8 282.78,-119.3 282.78,-126.3"/>
</g>
<!-- BtnRedirectComponent  -->
<g id="node6" class="node">
<title>BtnRedirectComponent </title>
<polygon fill="#fb8072" stroke="black" points="758.48,-214.8 605.52,-214.8 605.52,-178.8 758.48,-178.8 758.48,-214.8"/>
<text text-anchor="middle" x="682" y="-192.6" font-family="Times,serif" font-size="14.00">BtnRedirectComponent </text>
</g>
<!-- SharedModule&#45;&gt;BtnRedirectComponent  -->
<g id="edge5" class="edge">
<title>SharedModule&#45;&gt;BtnRedirectComponent </title>
<path fill="none" stroke="black" stroke-dasharray="5,2" d="M391.46,-131.8C471.02,-131.8 618.62,-131.8 618.62,-131.8 618.62,-131.8 618.62,-168.69 618.62,-168.69"/>
<polygon fill="black" stroke="black" points="615.13,-168.69 618.62,-178.69 622.13,-168.69 615.13,-168.69"/>
</g>
<!-- IconsModule  -->
<g id="node7" class="node">
<title>IconsModule </title>
<polygon fill="#fb8072" stroke="black" points="587.87,-214.8 494.13,-214.8 494.13,-178.8 587.87,-178.8 587.87,-214.8"/>
<text text-anchor="middle" x="541" y="-192.6" font-family="Times,serif" font-size="14.00">IconsModule </text>
</g>
<!-- SharedModule&#45;&gt;IconsModule  -->
<g id="edge6" class="edge">
<title>SharedModule&#45;&gt;IconsModule </title>
<path fill="none" stroke="black" stroke-dasharray="5,2" d="M391.45,-140.8C450.38,-140.8 541,-140.8 541,-140.8 541,-140.8 541,-168.77 541,-168.77"/>
<polygon fill="black" stroke="black" points="537.5,-168.77 541,-178.77 544.5,-168.77 537.5,-168.77"/>
</g>
<!-- TabListComponent  -->
<g id="node8" class="node">
<title>TabListComponent </title>
<polygon fill="#fb8072" stroke="black" points="476.38,-214.8 347.62,-214.8 347.62,-178.8 476.38,-178.8 476.38,-214.8"/>
<text text-anchor="middle" x="412" y="-192.6" font-family="Times,serif" font-size="14.00">TabListComponent </text>
</g>
<!-- SharedModule&#45;&gt;TabListComponent  -->
<g id="edge7" class="edge">
<title>SharedModule&#45;&gt;TabListComponent </title>
<path fill="none" stroke="black" stroke-dasharray="5,2" d="M369.51,-149.91C369.51,-149.91 369.51,-168.79 369.51,-168.79"/>
<polygon fill="black" stroke="black" points="366.01,-168.79 369.51,-178.79 373.01,-168.79 366.01,-168.79"/>
</g>
<!-- TemplateModule  -->
<g id="node9" class="node">
<title>TemplateModule </title>
<polygon fill="#fb8072" stroke="black" points="329.92,-214.8 214.08,-214.8 214.08,-178.8 329.92,-178.8 329.92,-214.8"/>
<text text-anchor="middle" x="272" y="-192.6" font-family="Times,serif" font-size="14.00">TemplateModule </text>
</g>
<!-- SharedModule&#45;&gt;TemplateModule  -->
<g id="edge8" class="edge">
<title>SharedModule&#45;&gt;TemplateModule </title>
<path fill="none" stroke="black" stroke-dasharray="5,2" d="M311.37,-149.91C311.37,-149.91 311.37,-168.79 311.37,-168.79"/>
<polygon fill="black" stroke="black" points="307.87,-168.79 311.37,-178.79 314.87,-168.79 307.87,-168.79"/>
</g>
<!-- Total2Pipe  -->
<g id="node10" class="node">
<title>Total2Pipe </title>
<polygon fill="#fb8072" stroke="black" points="196.44,-214.8 115.56,-214.8 115.56,-178.8 196.44,-178.8 196.44,-214.8"/>
<text text-anchor="middle" x="156" y="-192.6" font-family="Times,serif" font-size="14.00">Total2Pipe </text>
</g>
<!-- SharedModule&#45;&gt;Total2Pipe  -->
<g id="edge9" class="edge">
<title>SharedModule&#45;&gt;Total2Pipe </title>
<path fill="none" stroke="black" stroke-dasharray="5,2" d="M292.68,-140.8C243.79,-140.8 176.12,-140.8 176.12,-140.8 176.12,-140.8 176.12,-168.77 176.12,-168.77"/>
<polygon fill="black" stroke="black" points="172.63,-168.77 176.12,-178.77 179.63,-168.77 172.63,-168.77"/>
</g>
<!-- TotalPipe  -->
<g id="node11" class="node">
<title>TotalPipe </title>
<polygon fill="#fb8072" stroke="black" points="97.94,-214.8 24.06,-214.8 24.06,-178.8 97.94,-178.8 97.94,-214.8"/>
<text text-anchor="middle" x="61" y="-192.6" font-family="Times,serif" font-size="14.00">TotalPipe </text>
</g>
<!-- SharedModule&#45;&gt;TotalPipe  -->
<g id="edge10" class="edge">
<title>SharedModule&#45;&gt;TotalPipe </title>
<path fill="none" stroke="black" stroke-dasharray="5,2" d="M292.73,-131.8C212.14,-131.8 61,-131.8 61,-131.8 61,-131.8 61,-168.69 61,-168.69"/>
<polygon fill="black" stroke="black" points="57.5,-168.69 61,-178.69 64.5,-168.69 57.5,-168.69"/>
</g>
</g>
</svg>
